<?xml version="1.0" standalone="no"?>
<!DOCTYPE svg PUBLIC "-//W3C//DTD SVG 20010904//EN"
 "http://www.w3.org/TR/2001/REC-SVG-20010904/DTD/svg10.dtd">
<svg version="1.0" xmlns="http://www.w3.org/2000/svg"
 width="700.000000pt" height="700.000000pt" viewBox="0 0 700.000000 700.000000"
 preserveAspectRatio="xMidYMid meet">
<metadata>
Created by potrace 1.11, written by Peter Selinger 2001-2013
</metadata>
<g transform="translate(0.000000,700.000000) scale(0.100000,-0.100000)"
fill="#000000" stroke="none">
<path d="M3665 6760 c-10 -15 -7 -108 4 -165 24 -124 66 -211 171 -350 39 -51
70 -97 70 -104 0 -23 -29 -10 -72 32 -120 115 -262 243 -279 251 -22 10 -49
-8 -48 -33 0 -9 22 -34 48 -56 26 -22 67 -66 91 -98 24 -32 54 -67 68 -78 39
-30 21 -32 -36 -3 -31 15 -68 46 -94 77 -23 29 -85 95 -138 148 -71 72 -100
109 -115 147 -20 55 -40 71 -61 50 -11 -11 -11 -24 2 -73 9 -33 24 -74 34 -91
36 -62 141 -183 170 -196 31 -13 40 -28 18 -28 -14 0 -236 83 -267 99 -14 8
-22 7 -31 -4 -18 -21 12 -63 58 -82 72 -30 199 -133 187 -152 -7 -13 -66 10
-147 55 -107 61 -158 67 -158 19 0 -19 12 -27 78 -50 105 -38 130 -52 172 -94
22 -22 57 -43 90 -54 58 -18 96 -46 125 -91 32 -49 57 -55 215 -49 277 9 355
9 385 2 17 -4 75 -17 130 -29 150 -33 138 -27 114 -60 -14 -19 -20 -38 -17
-58 l4 -29 -135 2 c-239 5 -474 -33 -811 -129 -279 -79 -266 -74 -243 -92 16
-11 5 -13 -79 -14 -92 0 -124 -10 -78 -25 30 -9 24 -22 -12 -30 -60 -13 -103
-42 -209 -143 -159 -152 -179 -169 -240 -201 -104 -56 -149 -61 -504 -56 -176
3 -340 7 -365 9 -25 3 -79 7 -120 11 -41 3 -100 10 -130 15 -30 5 -73 12 -95
16 -22 3 -42 7 -46 9 -25 16 -257 23 -399 11 -236 -18 -361 -57 -504 -155 -69
-48 -257 -246 -308 -326 -73 -112 -134 -234 -146 -290 -10 -47 -9 -276 1 -292
3 -5 8 -35 11 -67 4 -32 9 -62 11 -66 2 -4 6 -20 9 -36 3 -17 22 -91 41 -165
62 -234 67 -262 79 -469 3 -47 8 -130 12 -185 16 -244 11 -307 -29 -395 -18
-39 -49 -93 -64 -112 -18 -23 -44 -101 -51 -148 -12 -93 -3 -574 12 -598 2 -4
7 -43 11 -87 3 -44 8 -93 11 -110 2 -16 3 -113 2 -215 -1 -102 -1 -299 -1
-438 1 -226 3 -256 19 -273 9 -10 25 -19 35 -19 29 0 37 -29 32 -107 -5 -78 3
-104 42 -129 69 -45 274 -50 368 -9 32 14 13 83 -42 152 -34 43 -57 116 -66
206 -8 73 -43 213 -61 242 -6 11 -15 40 -19 65 -4 25 -9 52 -10 60 -15 86 -19
111 -29 210 -4 36 -9 72 -11 80 -12 42 -14 194 -4 259 11 73 19 95 93 254 20
42 36 81 36 86 0 15 27 33 27 18 1 -6 13 -66 26 -132 14 -66 28 -142 32 -169
3 -27 8 -52 9 -55 2 -3 7 -26 10 -51 3 -25 8 -56 10 -70 3 -14 7 -43 11 -65 3
-22 10 -68 16 -103 5 -35 12 -116 14 -180 3 -64 7 -146 9 -182 3 -36 8 -110
11 -165 14 -217 21 -233 120 -251 16 -3 33 -11 37 -17 8 -13 1 -93 -13 -150
-12 -47 -8 -53 38 -62 21 -3 67 -18 101 -32 70 -27 142 -32 215 -13 93 25 105
52 59 134 -20 38 -35 52 -59 58 -40 10 -40 10 -58 99 -8 41 -19 90 -25 109 -5
19 -23 82 -39 140 -16 58 -40 133 -55 168 -33 77 -60 187 -90 361 -25 142 -26
248 -6 362 27 148 156 559 228 730 94 221 193 409 259 491 69 87 94 133 101
183 2 17 5 31 6 32 1 1 76 -22 167 -53 90 -30 196 -62 234 -71 79 -17 298 -24
377 -12 29 5 69 11 88 14 19 3 60 10 90 15 30 5 78 12 105 15 28 3 62 8 78 11
15 3 27 2 27 -3 0 -5 -18 -33 -40 -63 -36 -48 -38 -54 -23 -65 15 -11 13 -17
-21 -56 l-37 -44 23 -9 c13 -6 24 -11 26 -12 2 -1 -4 -16 -12 -33 -23 -43 -20
-68 8 -75 29 -7 30 -1 -49 -239 l-58 -179 18 -33 c16 -30 16 -42 6 -112 -6
-43 -13 -114 -16 -158 -7 -136 -56 -303 -187 -635 -89 -225 -168 -511 -163
-588 2 -30 13 -58 36 -90 29 -40 33 -54 35 -115 2 -88 19 -112 104 -145 85
-32 160 -31 267 3 l83 26 -25 64 c-34 91 -43 105 -75 116 -24 9 -29 17 -34 57
-4 26 -14 69 -22 95 -15 45 -15 92 0 162 10 49 19 89 22 100 3 10 8 33 19 85
3 14 7 34 10 45 2 11 13 63 25 115 59 278 82 359 115 411 90 145 128 213 172
309 46 103 47 107 49 210 1 90 6 119 34 200 68 199 150 355 254 479 l37 45 -6
-75 c-4 -41 -10 -103 -15 -139 -4 -36 -8 -155 -8 -265 0 -110 -5 -229 -11
-265 -19 -106 -25 -208 -13 -248 23 -78 44 -179 50 -237 8 -74 7 -263 -1 -410
-3 -60 -9 -173 -13 -250 -18 -313 -9 -361 76 -420 44 -31 54 -49 38 -71 -4 -6
-11 -31 -14 -56 -6 -43 -5 -47 36 -84 23 -21 53 -45 66 -52 29 -15 267 -18
349 -5 57 10 59 18 23 88 -21 42 -56 77 -125 128 -32 23 -44 39 -49 66 -10 62
-31 132 -73 251 -22 63 -40 131 -40 150 -1 122 9 557 13 618 3 41 12 93 20
115 8 23 27 98 41 167 25 117 27 139 22 305 -2 101 33 212 132 412 82 166 134
294 156 388 10 39 21 74 26 79 4 5 34 10 66 11 32 1 72 9 89 18 50 26 131 104
180 176 26 36 61 77 78 91 17 14 48 41 70 61 40 36 40 38 43 115 4 106 18 165
55 241 36 74 137 196 195 236 43 29 308 149 356 161 26 6 27 5 28 -36 1 -24 0
-83 -1 -133 -2 -49 -3 -121 -4 -160 l-1 -70 61 2 c128 3 205 78 223 216 10 84
23 107 90 158 92 69 152 153 197 279 52 146 62 155 189 164 78 6 133 -35 156
-117 18 -64 35 -74 125 -74 93 0 162 17 215 52 31 20 50 47 91 129 l51 103
-31 39 c-25 32 -32 52 -37 104 -12 126 -51 227 -107 276 -19 16 -100 65 -181
108 -157 84 -153 80 -160 168 -2 26 -11 58 -20 72 -17 25 -118 106 -134 106
-4 1 -20 11 -36 23 l-27 23 97 49 98 49 115 3 c173 3 193 7 445 88 304 98 409
147 507 238 78 72 39 116 -49 56 -27 -18 -50 -35 -53 -39 -20 -24 -101 -71
-119 -68 -21 3 -21 5 12 68 19 36 39 89 46 118 15 71 14 164 -2 186 -12 17
-14 17 -33 -1 -12 -10 -29 -47 -38 -83 -16 -61 -76 -173 -133 -248 -47 -63
-105 -59 -97 6 4 34 36 104 59 132 18 21 28 66 31 135 2 66 -14 165 -27 165
-5 0 -8 -3 -7 -7 6 -22 -99 -287 -138 -350 -53 -85 -185 -206 -242 -222 -35
-10 -42 -1 -42 56 0 26 11 50 45 95 52 70 97 159 126 253 28 92 29 101 16 118
-25 32 -53 2 -116 -126 -33 -69 -67 -127 -76 -131 -8 -3 -15 -2 -16 2 0 4 -2
39 -4 79 -4 73 -37 163 -62 171 -21 6 -34 -37 -38 -126 -2 -48 -6 -102 -10
-120 -8 -50 -74 -241 -91 -267 -22 -34 -74 -55 -172 -71 -94 -15 -166 -36
-227 -67 -26 -13 -57 -19 -92 -18 -49 1 -53 -1 -59 -25 -6 -25 -7 -25 -28 -6
-30 27 -47 31 -95 22 -32 -6 -44 -4 -48 6 -14 36 10 64 121 143 147 104 238
194 310 305 75 115 104 178 112 250 l7 58 -218 -221 c-158 -160 -241 -236
-300 -275 -104 -68 -138 -86 -169 -86 -34 0 -68 44 -60 79 10 46 56 135 100
192 52 68 71 104 125 239 43 110 59 183 40 195 -27 16 -53 -9 -92 -88 -50
-102 -68 -131 -145 -237 -34 -47 -79 -116 -100 -154 -47 -86 -101 -140 -153
-154 -52 -13 -138 -6 -167 13 -55 36 -83 146 -90 355 -7 205 -20 286 -50 317
-26 25 -43 30 -45 11 -1 -7 -2 -65 -4 -128 -1 -63 -6 -128 -11 -145 -11 -36
-10 -172 1 -237 6 -40 5 -48 -7 -48 -24 0 -33 17 -78 135 -61 160 -125 292
-148 304 -25 14 -49 5 -57 -20 -4 -10 5 -60 19 -111 27 -103 49 -206 44 -210
-4 -4 43 -70 63 -88 22 -20 28 -73 11 -93 -11 -13 -18 -13 -41 -4 -38 17 -73
46 -101 87 -13 19 -29 40 -35 46 -5 7 -18 22 -27 35 -37 52 -98 135 -106 144
-84 103 -155 236 -173 324 -13 69 -63 115 -84 81z"/>
</g>
</svg>
